<?xml version="1.0" encoding="utf-8"?>
<svg version="1.1" id="Layer_1" xmlns="http://www.w3.org/2000/svg" xmlns:xlink="http://www.w3.org/1999/xlink" x="0px" y="0px"
	 viewBox="-85 325.2 204.2 151.8" style="enable-background:new -85 325.2 204.2 151.8;" xml:space="preserve">
<g id="Logo_White">
	<path id="Leaf_Glyph" class="icon-axosoft" d="M117.9,325.2c0,0-44,4-73.7,25.6c-33.5,24.3-34.6,56.5-30.5,78.8c11.3-23,28.1-43.6,48.7-57.5
		c0.9-0.6,1.8,0.6,1,1.3c-22.1,19.3-39.5,46.3-46.9,76c-0.4,1.5-2.3,1.9-3.3,0.8c-9.3-10.7-25.8-20.3-40.2-22.5
		c-0.9-0.1-0.9-1.5,0-1.6c9-0.9,23.3,2.4,32.1,6C2,421-9.1,407.1-36,407.7c-27.2,0.5-49,14.7-49,14.7s17.2,36.3,52.9,38.5
		C-7.5,462.4,3,448.6,4.5,449c1.4,0.4,12.3,13.4,14.3,27.3c0.1,0.6,0.9,0.9,1.3,0.5l8.5-7.5c1.1-1,0.6-1,0.4-1.6
		c-3.8-10.2-0.7-20.5-0.7-20.5s31.7,9.9,61.8-18.7C128.4,392.2,117.9,325.2,117.9,325.2z"/>
</g>
</svg>
